<?xml version="1.0" encoding="UTF-8"?>
<svg width="1200pt" height="1200pt" version="1.1" viewBox="0 0 1200 1200" xmlns="http://www.w3.org/2000/svg">
 <g fill="#fff">
  <path d="m1102.2 929.93h-860.91c-22.586 0-40.969-18.324-40.969-40.848v-21.77c0-22.523 18.371-40.848 40.969-40.848h40.969c-2.1484-4.9688-3.2539-10.285-3.2539-15.77v-60.984c0-22.512 18.371-40.824 40.969-40.824h116.47c-0.070313-0.91016-0.10938-1.8125-0.10938-2.7227v-21.758c0-22.523 18.371-40.848 40.957-40.848h257.84c22.586 0 40.945 18.324 40.945 40.848v21.758c0 0.89844-0.035156 1.8008-0.10937 2.7227h103.37c22.598 0 40.969 18.312 40.969 40.824v60.984c0 5.4844-1.1172 10.801-3.2539 15.77h185.16c22.598 0 40.969 18.324 40.969 40.848v21.77c-0.011719 22.523-18.395 40.848-40.98 40.848zm-860.91-91.477c-15.973 0-28.969 12.938-28.969 28.848v21.77c0 15.91 12.996 28.848 28.969 28.848h860.9c15.973 0 28.969-12.938 28.969-28.848v-21.77c0-15.91-12.996-28.848-28.969-28.848h-208.37l7.9336-9.7812c4.2734-5.2578 6.5391-11.484 6.5391-17.988v-60.984c0-15.887-12.996-28.824-28.969-28.824h-118.26l1.9453-7.5117c0.73047-2.7461 1.0547-5.0508 1.0547-7.2109v-21.758c0-15.91-12.984-28.848-28.945-28.848h-257.85c-15.973 0-28.957 12.938-28.957 28.848v21.758c0 2.1602 0.33594 4.4531 1.043 7.2109l1.957 7.5117h-131.35c-15.973 0-28.969 12.938-28.969 28.824v60.984c0 6.5039 2.2578 12.73 6.5273 18l7.9336 9.7695z"/>
  <path d="m615.47 463.54h-437.88c-13.117 0-23.785-10.645-23.785-23.734v-11.074c0-13.078 10.668-23.723 23.785-23.723h16.789c-0.37109-1.6562-0.55078-3.3477-0.55078-5.0742v-31.02c0-13.078 10.668-23.711 23.785-23.711h56.23v-9.5039c0-13.078 10.668-23.723 23.773-23.723h131.14c13.117 0 23.785 10.645 23.785 23.723v9.5039h49.57c13.117 0 23.785 10.633 23.785 23.711v31.02c0 1.7266-0.19141 3.4219-0.55078 5.0742h90.133c13.117 0 23.785 10.645 23.785 23.723v11.074c-0.007813 13.09-10.676 23.734-23.793 23.734zm-437.88-46.535c-6.5039 0-11.785 5.2578-11.785 11.723v11.074c0 6.4688 5.2812 11.734 11.785 11.734h437.88c6.5039 0 11.785-5.2578 11.785-11.734v-11.074c0-6.4688-5.2812-11.723-11.785-11.723h-112.15l7.9062-9.7695c1.2109-1.5 2.6641-3.9844 2.6641-7.2969v-31.02c0-6.457-5.2812-11.711-11.785-11.711h-63.961l1.9453-7.5c0.30078-1.1641 0.44531-2.0898 0.44531-2.9297v-11.062c0-6.4688-5.2812-11.723-11.785-11.723h-131.13c-6.4922 0-11.773 5.2578-11.773 11.723v11.062c0 0.85156 0.14453 1.7773 0.43359 2.9023l1.9922 7.5234h-70.656c-6.5039 0-11.785 5.2578-11.785 11.711v31.02c0 3.3125 1.4531 5.7969 2.6641 7.2969l7.9336 9.7812-38.832 0.003907z"/>
  <path d="m1021.8 215.34h-284.62c-9.6836 0-17.555-7.8594-17.555-17.52v-7.1992c0-9.6602 7.8711-17.52 17.555-17.52h8.4727c-0.023437-0.39453-0.035156-0.79297-0.035156-1.1875v-20.172c0-9.6602 7.8828-17.508 17.578-17.508h34.453v-4.0781c0-9.6602 7.8711-17.52 17.555-17.52h85.246c9.6836 0 17.555 7.8594 17.555 17.52v4.0781h30.121c9.6953 0 17.578 7.8594 17.578 17.508v20.172c0 0.39453-0.011718 0.79297-0.035156 1.1875h56.148c9.6836 0 17.555 7.8594 17.555 17.52v7.1992c-0.019531 9.6602-7.8906 17.52-17.574 17.52zm-284.62-30.25c-3.0586 0-5.5547 2.4844-5.5547 5.5195v7.1992c0 3.0469 2.4961 5.5195 5.5547 5.5195h284.63c3.0586 0 5.5547-2.4844 5.5547-5.5195v-7.1992c0-3.0469-2.4961-5.5195-5.5547-5.5195h-77.426l8.0508-9.8047c0.57422-0.70703 1.2617-1.8594 1.2617-3.3828v-20.172c0-3.0352-2.5078-5.5078-5.5781-5.5078l-44.449-0.003906 2.1367-7.6211c0.13281-0.48047 0.20312-0.89844 0.20312-1.2617v-7.1992c0-3.0352-2.4961-5.5195-5.5547-5.5195h-85.246c-3.0586 0-5.5547 2.4844-5.5547 5.5195v7.1992c0 0.38281 0.070313 0.83984 0.21484 1.4023l1.9062 7.4883h-48.574c-3.0703 0-5.5781 2.4727-5.5781 5.5078v20.172c0 1.5234 0.69531 2.6992 1.2617 3.4219l7.9062 9.7695-29.609 0.003906z"/>
 </g>
</svg>
